<svg aria-hidden="true" style="position:absolute;width:0;height:0" xmlns="http://www.w3.org/2000/svg" overflow="hidden"><defs><symbol id="icon-email" viewBox="0 0 32 32"><path d="M21.212 16.164L32 22.984V9.056zM0 9.056v13.928l10.788-6.82zM30 5H2C1.002 5 .21 5.744.06 6.702L16 17.204 31.94 6.702C31.79 5.744 30.998 5 30 5zM19.38 17.372l-2.83 1.864a.986.986 0 01-.548.164H16a.999.999 0 01-.55-.164l-2.83-1.866L.064 25.312C.218 26.262 1.006 27 2 27h28c.994 0 1.782-.738 1.936-1.688l-12.556-7.94z"/></symbol><symbol id="icon-facebook" viewBox="0 0 32 32"><path d="M21.329 5.313h2.921V.225C23.746.156 22.013 0 19.994 0c-4.212 0-7.097 2.649-7.097 7.519V12H8.249v5.688h4.648V32h5.699V17.689h4.46l.708-5.688h-5.169V8.082c.001-1.644.444-2.769 2.735-2.769z"/></symbol><symbol id="icon-github" viewBox="0 0 32 32"><path d="M16 .667C7.16.667 0 7.707 0 16.39c0 6.948 4.584 12.84 10.94 14.917.8.148 1.093-.339 1.093-.756 0-.373-.013-1.363-.02-2.673-4.451.948-5.389-2.109-5.389-2.109-.728-1.815-1.78-2.3-1.78-2.3-1.449-.975.112-.955.112-.955 1.607.109 2.451 1.62 2.451 1.62 1.427 2.404 3.745 1.709 4.66 1.308.144-1.017.556-1.709 1.013-2.103-3.553-.393-7.288-1.745-7.288-7.769 0-1.716.62-3.119 1.647-4.219-.18-.397-.72-1.996.14-4.161 0 0 1.34-.421 4.4 1.612 1.28-.349 2.64-.523 4-.531 1.36.008 2.72.181 4 .531 3.04-2.033 4.38-1.612 4.38-1.612.86 2.165.32 3.764.16 4.161 1.02 1.1 1.64 2.503 1.64 4.219 0 6.04-3.74 7.369-7.3 7.756.56.472 1.08 1.436 1.08 2.909 0 2.104-.02 3.795-.02 4.305 0 .412.28.904 1.1.747C27.42 29.223 32 23.327 32 16.39 32 7.707 24.836.667 16 .667z"/></symbol><symbol id="icon-linkedin" viewBox="0 0 32 32"><path d="M4.622 1.625c-2.2 0-3.638 1.444-3.638 3.343 0 1.857 1.395 3.342 3.554 3.342h.042c2.243 0 3.639-1.486 3.639-3.342-.042-1.899-1.396-3.343-3.596-3.343zm-3.257 9.327h6.431V30.3H1.365zm22.216-.454c-3.469 0-5.796 3.26-5.796 3.26v-2.806h-6.431V30.3h6.431V19.495c0-.578.042-1.156.212-1.57.465-1.155 1.523-2.352 3.3-2.352 2.327 0 3.258 1.774 3.258 4.375v10.351h6.431V19.205c0-5.943-3.173-8.708-7.404-8.708z"/></symbol><symbol id="icon-pin" viewBox="0 0 32 32"><path d="M16 0C10.119 0 5.333 4.785 5.333 10.667c0 1.766.441 3.516 1.281 5.069l8.803 15.921a.667.667 0 001.166 0l8.806-15.926a10.683 10.683 0 001.277-5.064C26.666 4.786 21.881 0 15.999 0zm0 16c-2.941 0-5.333-2.393-5.333-5.333S13.06 5.334 16 5.334s5.333 2.393 5.333 5.333S18.94 16 16 16z"/></symbol><symbol id="icon-telegram" viewBox="0 0 32 32"><path d="M12.556 20.241l-.529 7.445c.757 0 1.085-.325 1.479-.716l3.551-3.393 7.357 5.388c1.349.752 2.3.356 2.664-1.241l4.829-22.629.001-.001c.428-1.995-.721-2.775-2.036-2.285L1.485 13.677c-1.937.752-1.908 1.832-.329 2.321l7.257 2.257L25.27 7.707c.793-.525 1.515-.235.921.291z"/></symbol><symbol id="icon-phone" viewBox="0 0 32 32"><path d="M22 20c-2 2-2 4-4 4s-4-2-6-4-4-4-4-6 2-2 4-4-4-8-6-8-6 6-6 6c0 4 4.109 12.109 8 16s12 8 16 8c0 0 6-4 6-6s-6-8-8-6z"/></symbol></defs></svg>